<?xml version="1.0" standalone="no"?>
<!DOCTYPE svg PUBLIC "-//W3C//DTD SVG 20010904//EN"
 "http://www.w3.org/TR/2001/REC-SVG-20010904/DTD/svg10.dtd">
<svg version="1.0" xmlns="http://www.w3.org/2000/svg"
 width="340.000000pt" height="360.000000pt" viewBox="0 0 340.000000 360.000000"
 preserveAspectRatio="xMidYMid meet">

<g transform="translate(0.000000,360.000000) scale(0.100000,-0.100000)"
fill="#000000" stroke="none">
<path d="M16 3568 c-7 -33 -18 -346 -11 -318 2 8 8 76 15 150 6 74 13 150 16
168 3 17 1 32 -4 32 -5 0 -12 -15 -16 -32z"/>
<path d="M675 3586 c-6 -8 -21 -29 -34 -47 l-24 -34 32 30 c35 32 57 65 44 65
-5 0 -13 -6 -18 -14z"/>
<path d="M1570 3550 l0 -49 -37 -6 c-21 -3 -76 -18 -122 -33 -73 -23 -92 -35
-146 -87 -123 -119 -150 -233 -122 -515 10 -91 17 -186 17 -212 0 -26 5 -48
11 -50 9 -3 9 -10 0 -26 -13 -25 -6 -97 14 -145 11 -27 12 -23 18 48 4 42 4
82 0 89 -4 6 1 5 11 -3 19 -16 18 -66 -1 -141 -8 -31 -6 -38 18 -60 21 -19 29
-38 34 -82 6 -50 5 -58 -9 -58 -10 0 -14 -4 -11 -10 3 -5 14 -10 23 -10 11 0
22 -14 30 -42 12 -38 35 -93 64 -150 6 -12 0 -24 -21 -45 -60 -56 -118 -217
-123 -339 l-2 -42 -49 1 c-42 1 -53 -3 -74 -27 -13 -16 -27 -41 -30 -57 -6
-33 -10 -34 -32 -16 -9 7 -41 19 -71 26 -30 7 -65 17 -77 23 -16 8 -30 8 -45
1 -22 -10 -22 -10 13 -46 20 -20 38 -37 41 -37 14 0 127 -82 132 -96 3 -8 10
-13 15 -10 5 4 15 -10 21 -29 6 -19 18 -35 26 -35 19 0 18 -29 -1 -36 -23 -9
-18 -19 19 -33 23 -10 32 -19 29 -31 -5 -19 12 -36 42 -42 11 -2 21 -12 24
-23 2 -11 12 -26 22 -33 11 -7 19 -19 19 -26 0 -17 -50 -27 -90 -19 -23 4 -30
2 -30 -11 0 -8 -11 -18 -25 -22 -14 -3 -22 -10 -19 -15 15 -25 -94 -168 -117
-153 -5 3 -9 -4 -9 -15 0 -12 -4 -21 -10 -21 -5 0 -10 -11 -10 -24 0 -15 -16
-41 -41 -67 l-41 -43 6 47 c5 38 4 47 -9 47 -8 0 -20 9 -27 20 -7 11 -19 20
-26 20 -7 0 -20 7 -28 15 -9 8 -20 15 -25 15 -17 0 -22 -32 -9 -54 40 -61 71
-140 67 -164 l-6 -27 11 27 c14 32 38 46 31 17 -11 -39 18 -110 53 -132 22
-14 34 -30 34 -44 0 -27 15 -30 24 -6 5 13 14 5 36 -35 24 -41 30 -63 29 -109
0 -32 -4 -67 -9 -78 -7 -18 -8 -19 -15 -3 -4 10 -11 15 -16 12 -11 -7 -12 -57
-1 -69 13 -16 34 -113 27 -125 -4 -7 -14 2 -23 22 -20 39 -47 48 -57 18 -5
-15 -12 -19 -26 -15 -16 5 -19 1 -19 -24 0 -24 3 -29 16 -24 9 3 19 1 23 -6 5
-8 77 -11 261 -9 l254 3 -62 40 c-44 28 -66 49 -74 72 -6 17 -16 29 -21 26 -6
-3 -7 -1 -3 5 12 20 51 13 75 -12 12 -13 37 -26 54 -29 62 -10 72 -14 77 -33
15 -53 50 -96 50 -63 0 8 5 7 16 -1 12 -11 18 -11 31 2 21 22 7 41 -24 33 -25
-6 -25 -5 -18 32 5 21 7 64 6 95 l-2 56 35 -10 c20 -6 36 -15 36 -20 0 -4 15
-8 34 -8 47 0 66 -9 66 -31 0 -10 11 -26 25 -35 24 -16 26 -15 44 7 22 27 17
43 -10 36 -19 -5 -44 15 -32 26 3 4 46 7 95 7 64 0 94 -4 104 -14 7 -8 22 -12
33 -9 13 3 23 -2 30 -16 7 -12 18 -21 26 -21 15 0 74 -50 59 -50 -5 -1 7 -8
26 -17 22 -10 64 -16 110 -17 l75 -1 -3 -27 c-3 -28 -2 -28 52 -28 42 0 57 4
65 18 6 9 11 13 11 8 0 -4 12 -1 26 9 14 9 28 14 31 11 9 -9 -17 -35 -40 -39
-12 -2 161 -5 384 -6 l406 -1 8 157 c9 188 9 220 6 341 l-3 92 -29 -21 c-16
-11 -34 -29 -40 -41 -6 -11 -13 -17 -16 -14 -5 5 15 56 37 98 6 10 10 34 10
54 0 31 2 35 15 24 13 -10 15 -9 15 12 0 84 -44 333 -63 353 -6 6 -7 3 -4 -10
13 -46 11 -119 -3 -110 -6 4 -10 -8 -10 -29 0 -19 -5 -36 -12 -38 -6 -2 -9
-12 -5 -21 8 -20 5 -33 -5 -29 -5 1 -8 -3 -8 -9 0 -15 -108 -139 -121 -139
-17 0 -9 25 11 38 11 7 20 23 20 35 0 15 13 33 40 53 22 16 40 32 40 37 0 17
-35 5 -56 -20 -13 -16 -24 -22 -24 -15 0 7 -4 10 -10 7 -13 -8 -13 18 1 32 5
5 12 37 14 69 4 46 3 52 -4 26 -10 -39 -25 -58 -17 -22 13 63 16 100 9 100 -4
0 -6 62 -5 137 2 76 2 136 -1 133 -3 -3 -8 -66 -11 -140 -13 -300 -16 -325
-42 -337 -21 -10 -24 -9 -24 8 0 10 -10 27 -22 39 -27 24 -63 28 -54 4 3 -9 6
-22 6 -30 0 -8 7 -14 15 -14 8 0 15 -4 15 -9 0 -5 -9 -7 -19 -4 -16 4 -21 -2
-27 -33 -5 -30 -9 -35 -18 -23 -11 14 -38 33 -64 45 -15 8 -122 -24 -122 -36
0 -5 -10 -12 -21 -15 -15 -5 -18 -10 -10 -15 14 -8 -41 -60 -65 -60 -7 0 -16
-11 -20 -25 -3 -14 -12 -25 -19 -25 -8 0 -17 -9 -20 -20 -3 -11 -11 -20 -17
-20 -6 0 -5 7 3 17 12 15 12 16 -4 10 -10 -4 -21 -7 -23 -7 -2 0 -4 -7 -4 -15
0 -8 5 -15 11 -15 5 0 7 -5 4 -10 -5 -8 -11 -7 -20 0 -18 15 -35 5 -35 -20 0
-17 -53 -44 -76 -39 -10 2 -40 -8 -69 -23 -34 -19 -88 -27 -107 -17 -32 17
-20 29 29 29 37 0 44 3 35 12 -7 7 -12 20 -12 29 0 23 -12 30 -30 18 -13 -8
-13 -10 -1 -18 7 -5 10 -14 7 -20 -5 -7 -14 -4 -28 9 -16 15 -19 23 -11 31 9
9 8 15 -3 26 -8 8 -14 28 -14 44 0 16 -4 29 -10 29 -5 0 -10 -7 -10 -16 0 -8
-4 -13 -9 -10 -5 3 -15 -9 -21 -27 l-13 -32 -10 43 c-15 64 -32 49 -30 -25 1
-7 -3 -13 -8 -13 -5 0 -9 -14 -9 -31 0 -26 -2 -29 -14 -20 -9 8 -28 10 -50 5
-20 -3 -60 -3 -89 0 -43 6 -53 10 -53 26 0 14 7 20 21 19 11 0 14 -3 8 -6 -18
-7 -16 -23 2 -23 12 0 15 14 15 65 0 60 -9 80 -25 55 -3 -5 -15 -10 -27 -10
-15 0 -18 4 -13 18 11 30 11 33 -12 49 -23 15 -23 15 -23 -24 0 -21 -6 -45
-12 -51 -7 -7 -13 -20 -13 -29 0 -8 -10 -19 -21 -24 -19 -7 -21 -4 -19 24 1
17 12 41 25 54 19 20 20 24 6 29 -9 3 -16 12 -16 19 0 14 45 29 60 20 6 -4 10
-1 10 4 0 6 20 11 44 11 25 0 48 5 51 10 4 6 14 9 23 8 9 -2 21 6 27 18 l10
21 18 -23 c9 -12 17 -30 17 -38 0 -10 9 -16 25 -16 28 0 32 12 10 30 -38 31
-9 70 51 70 42 0 60 16 55 48 -1 6 5 12 14 12 21 0 19 17 -5 32 -23 15 -27 48
-5 48 9 0 15 9 15 24 0 37 10 56 31 56 13 0 19 7 19 23 1 24 32 67 49 67 6 0
11 9 11 19 0 37 12 51 41 51 27 0 29 3 29 40 0 25 -5 40 -12 41 -7 0 0 6 16
14 28 12 29 13 8 19 -26 9 -28 33 -4 53 12 11 13 13 2 10 -12 -3 -15 7 -17 52
-1 45 0 51 8 31 8 -20 12 -22 19 -10 5 8 10 27 10 41 0 25 3 27 61 32 76 7 94
21 46 36 -45 15 -107 5 -107 -18 -1 -11 -6 -7 -15 10 -17 31 -54 57 -75 53 -8
-1 -32 -9 -52 -18 -28 -12 -36 -13 -32 -3 2 7 13 13 24 14 25 2 74 35 62 42
-11 7 -10 41 2 59 4 7 8 50 9 95 2 88 -6 107 -65 171 -15 17 -24 34 -21 39 3
5 18 -6 34 -24 l28 -33 21 21 c22 24 26 43 10 43 -5 0 -10 -4 -10 -10 0 -17
-32 -11 -50 10 -14 16 -16 28 -10 53 16 61 22 77 31 77 5 0 8 3 8 8 -1 4 -1
19 0 35 1 21 6 27 24 27 19 1 20 2 5 10 -24 15 -13 112 19 158 25 37 29 75 13
116 -5 14 -5 28 -1 31 13 7 21 -21 21 -74 0 -58 4 -63 37 -46 14 7 32 11 39 8
9 -3 14 2 14 16 0 12 -4 21 -8 21 -4 0 -8 8 -8 19 0 13 5 17 16 13 12 -5 13
-3 3 10 -7 8 -10 17 -7 21 3 3 7 45 9 94 4 116 4 115 14 108 5 -3 12 -1 16 5
3 5 -1 10 -10 10 -12 0 -14 9 -11 48 2 26 5 49 6 52 1 3 2 13 1 23 -2 10 5 17
16 18 10 0 13 3 6 6 -8 3 -13 26 -13 63 0 71 7 91 27 83 11 -4 14 -2 11 8 -3
8 -11 13 -17 12 -13 -3 -15 43 -2 52 5 3 12 -5 14 -17 3 -17 5 -14 6 10 0 18
-3 31 -7 28 -5 -3 -9 2 -9 10 0 8 6 13 14 10 19 -8 16 11 -3 22 -10 5 -14 14
-9 21 4 7 9 43 11 79 5 80 11 102 23 83 6 -10 10 -9 14 4 4 9 3 14 -2 11 -5
-3 -11 8 -15 25 -11 57 -6 95 14 117 12 12 16 22 10 22 -6 0 -9 4 -6 9 3 5 -1
14 -9 21 -21 18 -19 32 3 19 34 -21 45 -64 36 -142 -4 -40 -7 -76 -6 -81 2 -4
-2 -14 -7 -20 -8 -9 -6 -18 4 -32 13 -16 16 -17 25 -4 5 8 10 23 10 32 0 22
19 33 33 19 16 -16 27 -14 21 4 -7 18 17 20 33 4 8 -8 13 -8 17 0 4 6 20 11
37 11 16 0 29 5 29 10 0 6 5 10 10 10 6 0 10 -7 10 -15 0 -8 7 -15 15 -15 13
0 13 3 3 20 -11 17 -10 22 2 30 21 14 23 13 41 -18 9 -16 13 -37 9 -52 l-6
-25 -7 28 c-7 24 -10 26 -21 14 -8 -8 -25 -13 -38 -12 -13 1 -26 -5 -30 -14
-5 -12 -7 -9 -7 9 -1 17 -4 21 -9 12 -5 -7 -7 -26 -4 -42 3 -21 8 -27 21 -24
10 3 7 -1 -6 -12 -13 -9 -23 -19 -23 -23 0 -13 39 -9 44 5 3 8 19 14 40 14 41
0 76 -31 76 -67 0 -13 6 -23 13 -23 16 0 57 -42 57 -58 0 -15 13 -15 27 -1 8
8 13 8 17 0 4 -6 20 -11 37 -11 24 0 29 -4 29 -23 0 -13 -5 -28 -12 -35 -6 -6
-8 -15 -4 -19 4 -4 10 -3 14 2 9 13 52 17 52 5 0 -6 4 -10 9 -10 4 0 14 21 21
48 7 26 16 51 20 55 4 5 13 -29 19 -75 7 -46 17 -108 23 -139 11 -52 14 -58
45 -67 34 -10 34 -10 31 21 -3 31 -2 32 47 39 51 7 75 -2 75 -28 0 -8 -9 -14
-20 -14 -17 0 -19 -3 -10 -19 15 -28 12 -44 -6 -37 -10 4 -13 2 -8 -6 5 -7 0
-9 -13 -6 -11 3 -28 1 -37 -4 -17 -10 -106 -1 -104 11 2 22 -3 61 -9 61 -9 0
-11 -72 -3 -80 11 -10 29 -60 22 -59 -22 4 -42 -2 -37 -11 3 -5 -1 -10 -9 -10
-12 0 -16 -11 -16 -44 0 -25 -4 -48 -10 -51 -5 -3 -10 -17 -10 -29 0 -13 -6
-29 -14 -35 -15 -12 -11 -47 7 -58 18 -11 77 -14 77 -3 0 5 5 10 11 10 5 0 8
-4 4 -10 -3 -5 6 -15 20 -22 l26 -14 -30 -22 c-17 -12 -37 -19 -46 -16 -11 5
-14 2 -9 -10 3 -9 14 -16 24 -16 11 0 22 -5 25 -10 4 -6 10 -8 15 -5 9 6 20
-43 13 -62 -3 -7 -9 -10 -14 -7 -5 3 -9 -6 -9 -19 0 -21 4 -24 42 -23 42 1 43
0 49 -34 3 -19 1 -43 -3 -52 -6 -12 -1 -24 18 -43 14 -14 24 -31 21 -38 -5
-16 -47 -22 -47 -6 0 6 -8 17 -17 24 -25 18 -80 -18 -101 -66 -9 -22 -20 -39
-24 -39 -13 0 -9 -33 6 -52 7 -10 19 -18 25 -18 19 0 48 -33 55 -62 5 -20 13
-28 29 -28 16 0 26 -9 34 -30 10 -28 36 -44 31 -19 -2 6 3 14 11 17 10 3 12 0
8 -11 -4 -11 -2 -14 9 -10 8 3 26 -5 40 -17 l24 -23 0 140 c0 124 -2 142 -17
147 -19 8 -39 -12 -55 -56 -10 -29 -38 -39 -38 -14 0 8 -6 16 -12 19 -8 2 1
13 20 24 19 12 29 24 23 27 -17 11 -1 37 19 31 11 -3 20 0 24 10 3 8 11 15 17
15 8 0 8 -4 -1 -15 -10 -12 -10 -15 3 -15 14 0 16 22 16 161 l0 161 -34 32
c-25 24 -33 38 -28 54 3 13 1 22 -6 22 -6 0 -11 -5 -11 -12 0 -9 -3 -9 -11 -1
-6 6 -8 16 -5 22 10 15 56 14 56 -1 0 -6 9 -2 20 10 15 15 20 35 20 72 0 27
-4 50 -10 50 -5 0 -10 9 -10 19 0 11 5 23 10 26 6 3 10 14 10 24 0 14 -6 17
-29 13 -28 -4 -28 -3 -27 45 1 30 5 47 12 46 7 -1 10 6 7 17 -4 15 0 20 16 20
l21 0 0 380 0 380 -469 0 c-439 0 -470 -1 -474 -17 -4 -17 -5 -17 -6 0 -1 16
-27 17 -391 17 l-390 0 0 -22 c0 -34 -11 -68 -22 -68 -5 0 -6 5 -3 11 4 6 4
26 1 45 -6 31 -10 34 -41 34 l-35 0 0 -50z m977 -182 c-3 -7 -5 -2 -5 12 0 14
2 19 5 13 2 -7 2 -19 0 -25z m237 -62 c-3 -9 -10 -16 -15 -16 -5 0 -4 9 3 20
14 22 21 20 12 -4z m56 -1 c0 -16 6 -25 15 -25 9 0 20 -12 25 -26 14 -36 12
-44 -7 -37 -12 5 -15 2 -10 -10 3 -9 2 -17 -3 -17 -6 0 -10 11 -10 25 0 14 -4
25 -10 25 -5 0 -10 9 -10 20 0 11 -5 19 -11 18 -6 -2 -14 3 -16 10 -3 6 0 12
6 12 6 0 11 7 11 15 0 8 5 15 10 15 6 0 10 -11 10 -25z m-970 -354 c0 -3 -4
-12 -9 -20 -8 -12 -12 -12 -26 2 -9 9 -14 21 -11 26 6 10 46 3 46 -8z m236
-43 c4 -13 11 -26 16 -29 15 -10 48 -113 42 -134 -4 -15 -3 -16 4 -6 12 16 34
-53 64 -198 18 -88 18 -99 4 -175 -8 -45 -18 -107 -21 -138 -8 -72 -44 -144
-71 -140 -10 2 -27 12 -36 23 -10 12 -30 20 -52 21 -39 1 -46 14 -20 33 14 10
14 14 3 26 -21 21 -59 94 -59 112 0 8 -7 17 -15 21 -8 3 -15 14 -15 24 0 10
-9 27 -20 37 -11 10 -20 23 -20 28 0 10 -30 36 -42 37 -12 0 -10 -48 2 -55 6
-3 10 -12 10 -20 0 -9 -20 -13 -80 -13 -44 0 -82 4 -86 9 -3 5 -13 9 -22 9
-12 0 -9 -6 11 -18 15 -9 27 -20 27 -24 0 -12 -13 -9 -33 6 -9 7 -29 11 -45 9
-25 -4 -25 -3 -10 10 10 8 14 18 10 22 -4 4 14 5 40 3 26 -3 45 -2 42 3 -3 5
-14 9 -25 9 -16 0 -18 3 -9 20 6 12 16 17 26 13 14 -5 15 4 10 67 -4 61 -2 76
13 96 21 27 26 24 59 -41 18 -36 27 -43 74 -55 79 -21 120 -17 162 15 20 15
36 34 36 42 0 11 7 13 30 8 24 -5 30 -3 30 10 0 8 7 18 15 21 16 7 21 34 6 34
-5 0 -9 16 -9 36 0 39 -24 71 -77 104 -28 17 -39 18 -139 8 -96 -10 -110 -9
-121 5 -10 14 -12 13 -24 -5 -11 -18 -19 -19 -88 -12 -42 3 -87 13 -102 20
-14 8 -20 14 -13 14 6 0 12 7 12 15 0 11 12 15 43 17 23 0 49 0 57 -1 8 -2 29
-4 45 -6 17 -2 35 -4 40 -6 18 -5 64 23 70 43 5 14 16 18 56 18 28 0 59 5 70
10 13 7 19 7 19 1 0 -11 73 18 78 32 7 14 21 7 28 -15z m1149 -148 c-3 -5 -10
-10 -16 -10 -5 0 -9 5 -9 10 0 6 7 10 16 10 8 0 12 -4 9 -10z m15 -40 c12 -8
9 -10 -12 -10 -15 0 -30 5 -33 10 -8 13 25 13 45 0z m-116 -56 c9 -24 7 -44
-5 -44 -5 0 -9 8 -7 18 1 9 -1 23 -5 30 -5 6 -4 12 1 12 6 0 13 -7 16 -16z
m-1704 -14 c-18 -12 -30 -13 -30 -2 0 4 10 9 22 9 18 2 20 0 8 -7z m-128 -131
c2 -50 12 -54 50 -21 11 9 24 12 35 7 10 -5 21 -7 26 -7 4 1 7 -1 7 -6 0 -10
47 -29 91 -36 29 -5 38 -12 42 -33 6 -35 -35 -125 -67 -146 -14 -10 -26 -24
-26 -31 0 -8 -7 -17 -15 -20 -9 -3 -15 -11 -14 -18 1 -7 1 -20 0 -28 -1 -13
-2 -13 -11 0 -8 13 -10 12 -10 -2 0 -10 5 -18 10 -18 6 0 10 -4 10 -10 0 -14
-22 -12 -58 6 -18 8 -32 22 -32 30 0 8 -4 14 -10 14 -5 0 -7 -13 -3 -31 6 -30
5 -31 -16 -20 -11 7 -21 14 -21 17 0 3 5 2 10 -1 6 -3 10 0 10 9 0 8 3 22 7
32 5 13 3 16 -10 11 -9 -3 -19 -2 -22 3 -4 6 -1 10 5 10 14 0 3 74 -19 120
-19 42 -18 217 2 263 l12 28 8 -38 c4 -21 8 -59 9 -84z m1030 73 c4 -33 -8
-107 -23 -145 -18 -43 -21 -25 -4 23 8 23 15 60 15 82 0 37 -2 40 -24 36 -23
-5 -24 -4 -9 18 18 28 41 21 45 -14z m-422 8 c0 -5 -5 -10 -11 -10 -5 0 -7 5
-4 10 3 6 8 10 11 10 2 0 4 -4 4 -10z m-326 -8 c3 -5 -1 -9 -9 -9 -8 0 -15 4
-15 9 0 4 4 8 9 8 6 0 12 -4 15 -8z m1561 -20 c-3 -3 -11 0 -18 7 -9 10 -8 11
6 5 10 -3 15 -9 12 -12z m-1 -53 c-3 -5 -10 -7 -15 -3 -5 3 -7 10 -3 15 3 5
10 7 15 3 5 -3 7 -10 3 -15z m-1917 -41 c-3 -8 -6 -5 -6 6 -1 11 2 17 5 13 3
-3 4 -12 1 -19z m2040 -13 c0 -8 -4 -15 -8 -15 -4 0 -9 7 -13 15 -3 9 0 15 8
15 7 0 13 -7 13 -15z m-1402 -175 c-3 -5 -12 -10 -18 -10 -7 0 -6 4 3 10 19
12 23 12 15 0z m-34 -79 c13 -10 31 -21 39 -24 13 -5 13 -6 0 -6 -8 -1 -28 6
-45 15 -16 9 -41 20 -55 24 -24 8 -24 8 6 9 17 1 42 -7 55 -18z m1493 -26 c-4
-8 -8 -15 -10 -15 -2 0 -4 7 -4 15 0 8 4 15 10 15 5 0 7 -7 4 -15z m6 -41 c0
-8 -4 -12 -10 -9 -5 3 -10 10 -10 16 0 5 5 9 10 9 6 0 10 -7 10 -16z m-1527
-1 c-7 -2 -19 -2 -25 0 -7 3 -2 5 12 5 14 0 19 -2 13 -5z m93 -39 c10 -8 14
-13 7 -10 -6 4 -14 2 -18 -4 -3 -5 2 -10 11 -10 10 0 15 -2 12 -5 -9 -9 -58 6
-52 16 3 5 -5 13 -18 18 -22 9 -21 10 8 10 16 1 39 -6 50 -15z m1279 -64 c3
-5 1 -10 -4 -10 -6 0 -11 5 -11 10 0 6 2 10 4 10 3 0 8 -4 11 -10z m65 -43 c0
-17 -20 -37 -37 -37 -7 0 -17 9 -23 19 -14 28 13 55 41 41 10 -6 19 -16 19
-23z m-1344 -33 c-3 -8 -1 -14 4 -14 5 0 7 -7 4 -15 -4 -10 -11 -12 -23 -6 -9
5 -26 9 -36 8 -14 -1 -21 5 -23 20 -3 19 1 22 38 21 31 0 40 -4 36 -14z m221
-41 c-3 -10 -5 -2 -5 17 0 19 2 27 5 18 2 -10 2 -26 0 -35z m-869 -399 c15
-13 34 -24 42 -25 8 0 4 -4 -10 -9 -36 -11 -71 28 -69 78 2 32 3 33 6 8 3 -15
17 -39 31 -52z m-128 17 c0 -20 -25 -51 -41 -51 -13 0 -11 8 8 41 20 34 33 37
33 10z m1000 11 c0 -5 -7 -17 -16 -28 -8 -10 -14 -14 -11 -9 2 6 7 18 10 28 7
17 17 23 17 9z m-210 -39 c0 -1 -30 -27 -67 -59 -38 -31 -77 -70 -88 -85 -11
-15 -29 -33 -40 -39 -12 -6 -27 -20 -34 -32 -12 -19 -11 -20 38 -13 65 9 66 1
2 -15 -46 -11 -50 -10 -77 16 -31 29 -171 97 -223 109 -17 4 -29 10 -26 15 7
11 -15 70 -27 70 -5 0 -6 5 -3 10 13 21 60 10 88 -20 16 -17 39 -30 53 -30 17
0 22 -4 17 -16 -4 -12 -1 -15 13 -12 13 2 18 10 16 24 -2 18 4 22 35 27 26 5
42 2 54 -9 11 -10 18 -11 21 -4 5 17 76 30 82 15 2 -7 16 -15 29 -17 19 -4 33
3 56 28 21 21 27 34 19 37 -7 3 4 4 24 3 21 0 38 -2 38 -3z m-80 -12 c0 -5 -7
-11 -15 -15 -15 -5 -20 5 -8 17 9 10 23 9 23 -2z m-475 -71 c3 -5 1 -10 -4
-10 -6 0 -11 5 -11 10 0 6 2 10 4 10 3 0 8 -4 11 -10z m222 -362 c-2 -13 -4
-5 -4 17 -1 22 1 32 4 23 2 -10 2 -28 0 -40z m436 -71 c9 -23 -8 -40 -22 -23
-13 15 -7 36 9 36 4 0 10 -6 13 -13z m-434 -52 l0 -20 -9 20 c-5 11 -9 27 -9
35 -1 13 0 13 9 0 5 -8 9 -24 9 -35z m158 9 c-3 -3 -12 -4 -19 -1 -8 3 -5 6 6
6 11 1 17 -2 13 -5z m153 -3 c0 -6 -4 -13 -10 -16 -5 -3 -10 1 -10 9 0 9 5 16
10 16 6 0 10 -4 10 -9z m-802 -28 c-4 -22 -22 -20 -26 1 -2 10 3 16 13 16 10
0 15 -7 13 -17z m72 -18 c0 -20 5 -25 25 -25 20 0 25 -5 25 -25 0 -21 5 -25
31 -25 23 0 30 -4 28 -17 -2 -10 3 -29 10 -42 11 -20 10 -26 -7 -43 -26 -27
-42 -15 -42 30 0 43 -22 57 -103 65 -62 6 -78 20 -51 47 10 11 28 29 38 40 27
27 46 25 46 -5z m900 -30 c0 -30 -15 -33 -30 -6 -14 27 -13 31 10 31 15 0 20
-7 20 -25z m-490 -86 c0 -23 3 -26 26 -21 23 4 25 2 22 -24 -2 -20 -8 -29 -20
-28 -10 1 -17 -1 -16 -5 2 -19 -3 -31 -12 -26 -5 3 -10 -1 -10 -9 0 -9 4 -16
9 -16 5 0 13 -9 16 -20 5 -14 15 -20 37 -20 29 0 30 -1 15 -17 -22 -26 -17
-98 10 -123 15 -14 23 -16 26 -7 3 7 6 2 6 -10 1 -15 -5 -21 -16 -21 -10 1
-33 -2 -50 -6 -28 -6 -33 -5 -33 11 0 36 -20 -10 -21 -52 l-2 -40 -7 45 c-7
43 -7 43 -9 10 -1 -24 -4 -30 -10 -20 -9 17 3 178 14 188 5 4 5 -10 2 -31 -7
-47 2 -81 14 -51 7 18 8 18 8 0 1 -16 3 -16 20 6 13 15 18 33 14 46 -6 25 -13
27 -32 10 -8 -7 -6 -1 3 13 9 15 14 34 10 43 -5 14 -9 15 -15 4 -7 -10 -9 -11
-9 0 0 7 -4 11 -9 7 -6 -3 -8 18 -7 52 2 32 4 83 5 113 1 40 4 51 11 40 5 -8
10 -27 10 -41z m1416 -26 c-10 -10 -19 5 -10 18 6 11 8 11 12 0 2 -7 1 -15 -2
-18z m-1627 -15 c6 -17 4 -25 -8 -29 -37 -14 -57 20 -23 40 23 14 21 14 31
-11z m1751 -6 c0 -19 -19 -37 -69 -65 -47 -27 -47 -16 0 13 22 14 42 35 45 48
7 26 24 30 24 4z m-1995 -22 c3 -5 1 -10 -4 -10 -6 0 -11 5 -11 10 0 6 2 10 4
10 3 0 8 -4 11 -10z m340 -32 c36 -16 33 -48 -5 -48 -16 0 -30 5 -30 10 0 6
-18 10 -40 10 -33 0 -40 3 -40 20 0 17 7 20 45 20 24 0 56 -5 70 -12z m1595
-78 c-20 -13 -43 -13 -35 0 3 6 16 10 28 10 18 0 19 -2 7 -10z m-960 -35 c0
-8 -4 -15 -10 -15 -5 0 -10 7 -10 15 0 8 5 15 10 15 6 0 10 -7 10 -15z m-736
-14 c16 -6 17 -9 5 -13 -8 -3 -26 0 -40 8 -21 12 -22 13 -4 13 11 0 29 -4 39
-8z m1208 -26 c10 -13 0 -25 -23 -25 -15 0 -19 6 -17 29 2 25 5 28 18 18 8 -7
18 -16 22 -22z m-862 21 c0 -11 -19 -15 -25 -6 -3 5 1 10 9 10 9 0 16 -2 16
-4z m1477 -58 c-3 -8 -6 -5 -6 6 -1 11 2 17 5 13 3 -3 4 -12 1 -19z m-2187 -8
c0 -5 -2 -10 -4 -10 -3 0 -8 5 -11 10 -3 6 -1 10 4 10 6 0 11 -4 11 -10z
m2193 -30 c-3 -11 -7 -20 -9 -20 -2 0 -4 9 -4 20 0 11 4 20 9 20 5 0 7 -9 4
-20z m-646 -92 c-3 -8 -6 -5 -6 6 -1 11 2 17 5 13 3 -3 4 -12 1 -19z m-1170
-32 c18 -11 33 -26 33 -32 0 -5 14 -21 31 -33 24 -18 28 -25 18 -32 -8 -5 -9
-9 -4 -9 14 0 35 -49 24 -56 -5 -3 -23 1 -41 9 -18 8 -41 17 -50 21 -10 3 -18
12 -18 20 0 18 -49 40 -125 55 -90 19 -160 46 -163 64 -3 13 10 17 75 19 121
6 184 -2 220 -26z m1843 -4 c0 -11 -35 -52 -44 -52 -4 0 2 14 14 30 22 31 30
37 30 22z m-795 -82 c13 11 19 10 33 -4 16 -16 16 -18 0 -27 -23 -13 -23 -29
0 -29 31 -1 -10 -19 -57 -25 -32 -4 -41 -2 -41 10 0 15 11 19 40 16 8 -1 0 7
-17 18 -18 12 -33 25 -33 29 0 17 12 20 36 10 18 -8 27 -8 39 2z m225 -21 c0
-5 -4 -9 -10 -9 -5 0 -10 7 -10 16 0 8 5 12 10 9 6 -3 10 -10 10 -16z m-1376
-44 c-7 -16 -14 -18 -38 -9 -22 9 -10 24 19 24 18 0 23 -4 19 -15z m1278 -30
c3 -14 1 -25 -3 -25 -5 0 -9 11 -9 25 0 14 2 25 4 25 2 0 6 -11 8 -25z m110
-77 c-6 -6 -12 -5 -17 3 -5 8 -4 10 3 5 8 -5 12 2 13 21 2 25 2 26 6 4 3 -13
0 -28 -5 -33z m-185 -30 c-3 -8 -6 -5 -6 6 -1 11 2 17 5 13 3 -3 4 -12 1 -19z
m130 -10 c-3 -8 -6 -5 -6 6 -1 11 2 17 5 13 3 -3 4 -12 1 -19z"/>
<path d="M2182 2660 c0 -14 2 -19 5 -12 2 6 2 18 0 25 -3 6 -5 1 -5 -13z"/>
<path d="M1266 1507 c3 -10 9 -15 12 -12 3 3 0 11 -7 18 -10 9 -11 8 -5 -6z"/>
<path d="M1780 1430 c0 -5 4 -10 9 -10 6 0 13 5 16 10 3 6 -1 10 -9 10 -9 0
-16 -4 -16 -10z"/>
<path d="M1660 1321 c0 -6 4 -13 10 -16 6 -3 7 1 4 9 -7 18 -14 21 -14 7z"/>
<path d="M213 3540 c0 -25 2 -35 4 -22 2 12 2 32 0 45 -2 12 -4 2 -4 -23z"/>
<path d="M136 3473 c-15 -30 -57 -184 -55 -205 0 -7 9 14 19 47 10 33 28 88
38 123 22 67 21 79 -2 35z"/>
<path d="M43 3455 c0 -22 2 -30 4 -17 2 12 2 30 0 40 -3 9 -5 -1 -4 -23z"/>
<path d="M2771 3384 c0 -11 3 -14 6 -6 3 7 2 16 -1 19 -3 4 -6 -2 -5 -13z"/>
<path d="M26 3308 c-4 -46 -11 -116 -17 -156 -6 -41 -7 -86 -3 -100 6 -23 9
-17 15 33 11 86 23 305 17 305 -3 0 -8 -37 -12 -82z"/>
<path d="M131 3348 c-6 -24 -11 -52 -10 -63 0 -11 -2 -47 -5 -80 -5 -44 -4
-54 4 -37 5 12 12 57 14 100 3 42 8 87 12 100 3 12 4 22 1 22 -2 0 -10 -19
-16 -42z"/>
<path d="M182 3365 c-1 -16 -6 -46 -12 -65 -6 -23 -6 -46 0 -65 l10 -30 -4 35
c-2 19 1 43 6 53 5 10 7 37 5 60 -2 30 -4 33 -5 12z"/>
<path d="M2635 3306 c4 -12 7 -29 6 -38 0 -21 10 -23 27 -6 18 18 15 41 -4 34
-11 -4 -14 -1 -10 12 4 13 1 19 -10 19 -11 0 -14 -6 -9 -21z"/>
<path d="M422 3271 c-7 -21 -12 -45 -11 -52 0 -8 7 8 15 35 9 26 13 50 11 52
-2 2 -9 -13 -15 -35z"/>
<path d="M2549 3289 c-6 -12 -17 -18 -25 -15 -17 7 -27 -26 -22 -80 3 -33 8
-42 37 -56 19 -10 39 -14 45 -9 6 4 27 7 46 6 49 -3 50 -4 50 -16 0 -8 -14
-10 -45 -6 -25 4 -45 3 -45 -2 0 -4 37 -11 83 -14 95 -7 117 -13 118 -36 0 -9
3 -11 5 -4 7 15 -13 53 -28 53 -16 0 -59 53 -56 70 1 8 -1 21 -5 28 -7 9 -12
9 -24 -3 -14 -14 -14 -18 2 -35 24 -27 14 -35 -11 -10 -10 12 -27 28 -36 38
-10 9 -18 22 -18 29 0 7 -6 13 -12 13 -8 1 -5 6 6 15 22 17 15 30 -24 43 -26
10 -31 8 -41 -9z m22 -69 c12 0 12 -47 -1 -55 -5 -3 -10 -3 -11 2 -5 50 -6 93
-2 76 2 -13 9 -23 14 -23z m58 -39 c7 -5 10 -14 7 -20 -10 -16 -29 -13 -23 3
3 8 1 17 -6 20 -7 2 -7 5 -2 5 6 0 16 -3 24 -8z"/>
<path d="M441 3229 c-16 -28 -31 -47 -33 -42 -3 4 -3 3 -2 -4 2 -7 -1 -15 -5
-18 -5 -2 -12 -17 -16 -32 -3 -15 -10 -30 -14 -33 -4 -3 -22 -32 -40 -65 -18
-33 -25 -51 -17 -41 9 11 16 24 16 29 0 4 4 6 9 3 4 -3 15 11 24 32 9 20 21
44 26 52 17 27 76 134 83 152 14 35 -2 17 -31 -33z"/>
<path d="M982 3220 c0 -14 2 -19 5 -12 2 6 2 18 0 25 -3 6 -5 1 -5 -13z"/>
<path d="M166 3185 c-3 -9 -5 -35 -5 -58 1 -40 2 -40 9 13 9 57 7 73 -4 45z"/>
<path d="M142 3140 c0 -14 2 -19 5 -12 2 6 2 18 0 25 -3 6 -5 1 -5 -13z"/>
<path d="M2496 3115 c4 -8 16 -15 28 -15 21 1 21 1 2 15 -25 19 -37 19 -30 0z"/>
<path d="M101 3104 c0 -11 3 -14 6 -6 3 7 2 16 -1 19 -3 4 -6 -2 -5 -13z"/>
<path d="M2556 3111 c-4 -7 -5 -15 -2 -18 9 -9 19 4 14 18 -4 11 -6 11 -12 0z"/>
<path d="M2813 3104 c-3 -8 -1 -20 6 -27 8 -8 11 -8 11 0 0 6 3 18 6 27 3 9 1
16 -5 16 -7 0 -14 -7 -18 -16z"/>
<path d="M2495 3080 c3 -5 8 -10 11 -10 2 0 4 5 4 10 0 6 -5 10 -11 10 -5 0
-7 -4 -4 -10z"/>
<path d="M2919 3059 c-20 -28 -20 -30 -3 -27 15 2 44 38 44 54 0 14 -22 -1
-41 -27z"/>
<path d="M96 3045 c-3 -9 -5 -29 -5 -43 1 -20 3 -17 9 13 8 43 7 57 -4 30z"/>
<path d="M122 3035 c0 -16 2 -22 5 -12 2 9 2 23 0 30 -3 6 -5 -1 -5 -18z"/>
<path d="M153 3010 c0 -25 2 -35 4 -22 2 12 2 32 0 45 -2 12 -4 2 -4 -23z"/>
<path d="M2770 3025 c0 -5 5 -17 10 -25 5 -8 10 -10 10 -5 0 6 -5 17 -10 25
-5 8 -10 11 -10 5z"/>
<path d="M355 3007 c-6 -7 -9 -20 -7 -31 3 -13 0 -16 -10 -11 -7 5 -10 5 -6 0
4 -4 4 -13 -1 -19 -5 -6 -11 -29 -14 -51 l-7 -40 15 40 c8 22 19 49 24 60 12
24 24 65 19 65 -2 -1 -8 -6 -13 -13z"/>
<path d="M3 2940 c0 -36 2 -50 4 -32 2 17 2 47 0 65 -2 17 -4 3 -4 -33z"/>
<path d="M3010 2990 c8 -5 20 -10 25 -10 6 0 3 5 -5 10 -8 5 -19 10 -25 10 -5
0 -3 -5 5 -10z"/>
<path d="M2930 2981 c0 -6 5 -13 10 -16 6 -3 10 1 10 9 0 9 -4 16 -10 16 -5 0
-10 -4 -10 -9z"/>
<path d="M2442 2955 c0 -16 2 -22 5 -12 2 9 2 23 0 30 -3 6 -5 -1 -5 -18z"/>
<path d="M3046 2954 c-11 -27 -7 -37 9 -24 16 14 20 40 6 40 -5 0 -12 -7 -15
-16z"/>
<path d="M2920 2927 c0 -35 -27 -140 -30 -119 -2 6 -3 18 -4 25 -1 6 2 21 8
32 6 11 12 31 13 44 l2 24 -20 -22 c-11 -11 -25 -21 -32 -21 -7 0 -13 -10 -14
-21 -1 -12 -11 -32 -23 -44 -32 -34 -90 -258 -69 -271 4 -2 14 15 21 38 7 24
18 49 25 56 7 7 13 18 13 23 0 5 15 9 33 9 25 0 35 -6 45 -27 15 -33 15 -50 2
-58 -7 -4 -9 3 -5 22 4 19 3 23 -3 13 -5 -8 -17 -50 -26 -92 -20 -89 -32 -103
-22 -25 5 39 4 49 -4 41 -14 -14 -29 -77 -30 -118 0 -16 -6 -37 -14 -45 -7 -9
-16 -33 -20 -53 -6 -34 -5 -38 14 -38 12 0 18 -4 15 -11 -4 -5 1 -19 11 -30
13 -15 19 -17 26 -7 6 10 11 9 22 -4 19 -26 24 -23 37 22 9 29 15 37 24 30 7
-5 15 -7 18 -3 13 13 7 52 -10 62 -15 9 -12 10 15 11 27 0 32 -4 32 -22 0 -16
3 -19 9 -10 5 9 17 11 35 6 23 -5 27 -11 23 -31 -2 -13 0 -26 5 -29 4 -3 8 -2
7 3 -3 17 1 33 9 32 18 -3 32 2 32 11 0 6 -7 10 -15 10 -8 0 -15 5 -15 11 0 6
-7 8 -16 5 -8 -3 -23 2 -32 11 -13 12 -14 17 -4 21 10 3 9 9 -4 23 -16 18 -16
19 1 19 11 0 15 5 11 16 -3 9 -6 20 -6 25 0 5 -10 9 -22 9 -21 0 -23 5 -25 56
-1 43 1 53 11 45 9 -8 17 -2 30 19 9 17 22 30 27 30 6 0 8 4 4 10 -3 5 -13 7
-23 4 -14 -5 -14 -3 2 10 11 9 28 16 38 16 10 0 18 5 18 11 0 14 -48 3 -70
-15 -23 -20 -54 -24 -68 -10 -6 7 -15 32 -18 55 -6 34 -4 45 11 56 18 13 18
13 -1 13 -17 1 -15 4 9 23 15 13 27 28 27 34 0 6 10 13 23 15 15 2 18 5 9 11
-8 5 -22 -3 -41 -23 -18 -20 -31 -28 -35 -21 -4 6 -1 11 7 11 17 0 38 45 31
65 -4 8 -2 21 4 28 8 9 4 15 -14 24 -23 11 -24 9 -24 -20z m-54 -153 c0 -20 6
-39 15 -45 12 -7 11 -9 -3 -9 -12 0 -18 8 -19 23 0 12 -3 16 -6 9 -5 -13 -23
-7 -23 9 0 6 5 7 10 4 6 -4 10 5 10 19 0 14 4 26 8 26 4 0 8 -16 8 -36z m31
-9 c0 -8 -4 -15 -9 -15 -4 0 -8 7 -8 15 0 8 4 15 8 15 5 0 9 -7 9 -15z m-10
-225 c0 -19 -4 -27 -10 -21 -5 5 -6 18 -2 30 9 29 12 26 12 -9z m-16 -71 c-9
-22 -10 -22 -10 -3 -1 11 2 24 6 27 12 12 14 0 4 -24z m109 -31 c0 -7 -4 -19
-9 -26 -7 -11 -10 -10 -15 3 -3 9 -4 21 0 26 8 13 24 11 24 -3z m-134 -133
c-20 -20 -29 -19 -17 3 5 10 12 38 15 63 7 68 9 69 13 6 3 -41 0 -62 -11 -72z
m-41 15 c3 -5 1 -10 -4 -10 -6 0 -11 5 -11 10 0 6 2 10 4 10 3 0 8 -4 11 -10z"/>
<path d="M142 2930 c0 -14 2 -19 5 -12 2 6 2 18 0 25 -3 6 -5 1 -5 -13z"/>
<path d="M82 2910 c0 -14 2 -19 5 -12 2 6 2 18 0 25 -3 6 -5 1 -5 -13z"/>
<path d="M962 2905 c0 -16 2 -22 5 -12 2 9 2 23 0 30 -3 6 -5 -1 -5 -18z"/>
<path d="M2970 2900 c-9 -6 -10 -10 -3 -10 6 0 15 5 18 10 8 12 4 12 -15 0z"/>
<path d="M2998 2883 c7 -3 16 -2 19 1 4 3 -2 6 -13 5 -11 0 -14 -3 -6 -6z"/>
<path d="M3031 2880 c-1 -17 33 -43 43 -33 12 12 6 23 -13 23 -11 0 -22 6 -24
13 -4 8 -6 7 -6 -3z"/>
<path d="M3258 2863 c6 -2 18 -2 25 0 6 3 1 5 -13 5 -14 0 -19 -2 -12 -5z"/>
<path d="M11 2759 c1 -52 5 -137 9 -189 5 -65 6 -37 3 90 -3 102 -7 187 -9
189 -2 2 -3 -38 -3 -90z"/>
<path d="M72 2820 c0 -14 2 -19 5 -12 2 6 2 18 0 25 -3 6 -5 1 -5 -13z"/>
<path d="M3054 2816 c-17 -20 -29 -24 -60 -21 -21 1 -30 1 -19 -2 11 -3 31
-16 44 -30 l23 -25 33 32 c35 34 42 70 15 70 -8 0 -24 -11 -36 -24z"/>
<path d="M2425 2818 c-6 -19 -1 -68 8 -68 4 0 7 18 7 40 0 40 -7 52 -15 28z"/>
<path d="M3225 2810 c3 -5 8 -10 11 -10 2 0 4 5 4 10 0 6 -5 10 -11 10 -5 0
-7 -4 -4 -10z"/>
<path d="M132 2790 c0 -14 2 -19 5 -12 2 6 2 18 0 25 -3 6 -5 1 -5 -13z"/>
<path d="M287 2803 c-8 -13 -20 -98 -13 -92 6 6 26 99 20 99 -1 0 -5 -3 -7 -7z"/>
<path d="M3386 2765 c4 -8 8 -15 10 -15 2 0 4 7 4 15 0 8 -4 15 -10 15 -5 0
-7 -7 -4 -15z"/>
<path d="M126 2725 c-3 -9 -6 -24 -5 -33 0 -9 5 -4 10 12 9 32 6 48 -5 21z"/>
<path d="M3040 2713 c-13 -15 -12 -16 4 -10 10 4 20 7 22 7 2 0 4 5 4 10 0 15
-13 12 -30 -7z"/>
<path d="M257 2685 c-3 -11 -8 -36 -11 -55 -5 -30 -3 -29 9 10 8 25 14 49 12
55 -2 5 -6 1 -10 -10z"/>
<path d="M2841 2644 c0 -11 3 -14 6 -6 3 7 2 16 -1 19 -3 4 -6 -2 -5 -13z"/>
<path d="M2414 2635 c-3 -8 -4 -20 -2 -27 3 -7 7 -1 10 15 6 29 1 36 -8 12z"/>
<path d="M62 2615 c0 -16 2 -22 5 -12 2 9 2 23 0 30 -3 6 -5 -1 -5 -18z"/>
<path d="M892 2590 c0 -19 2 -27 5 -17 2 9 2 25 0 35 -3 9 -5 1 -5 -18z"/>
<path d="M226 2564 c-4 -14 -5 -28 -3 -31 3 -2 8 8 11 23 4 14 5 28 3 31 -3 2
-8 -8 -11 -23z"/>
<path d="M51 2524 c0 -11 3 -14 6 -6 3 7 2 16 -1 19 -3 4 -6 -2 -5 -13z"/>
<path d="M2401 2514 c0 -11 3 -14 6 -6 3 7 2 16 -1 19 -3 4 -6 -2 -5 -13z"/>
<path d="M2720 2496 c-5 -13 -11 -41 -14 -62 l-5 -39 12 39 c8 22 19 42 25 44
15 5 16 42 2 42 -6 0 -15 -11 -20 -24z"/>
<path d="M92 2480 c0 -19 2 -27 5 -17 2 9 2 25 0 35 -3 9 -5 1 -5 -18z"/>
<path d="M206 2484 c-4 -14 -5 -28 -3 -31 3 -2 8 8 11 23 4 14 5 28 3 31 -3 2
-8 -8 -11 -23z"/>
<path d="M2 2480 c0 -14 2 -19 5 -12 2 6 2 18 0 25 -3 6 -5 1 -5 -13z"/>
<path d="M3391 2484 c0 -11 3 -14 6 -6 3 7 2 16 -1 19 -3 4 -6 -2 -5 -13z"/>
<path d="M252 2470 c0 -14 2 -19 5 -12 2 6 2 18 0 25 -3 6 -5 1 -5 -13z"/>
<path d="M3380 2438 c0 -7 5 -20 10 -28 8 -12 10 -9 10 13 0 15 -4 27 -10 27
-5 0 -10 -6 -10 -12z"/>
<path d="M186 2404 c-4 -20 -5 -38 -3 -40 3 -3 8 11 11 32 4 20 5 38 3 40 -3
3 -8 -11 -11 -32z"/>
<path d="M3035 2423 c2 -10 4 -26 4 -35 1 -10 6 -18 12 -18 5 0 7 5 4 10 -3 6
0 10 9 10 8 0 17 -6 19 -12 4 -10 6 -10 6 0 1 6 9 12 18 12 9 0 13 3 9 7 -4 4
-21 7 -39 8 -25 0 -31 4 -29 18 2 9 -1 17 -7 17 -5 0 -8 -8 -6 -17z"/>
<path d="M241 2414 c0 -11 3 -14 6 -6 3 7 2 16 -1 19 -3 4 -6 -2 -5 -13z"/>
<path d="M82 2400 c0 -14 2 -19 5 -12 2 6 2 18 0 25 -3 6 -5 1 -5 -13z"/>
<path d="M6 2385 c-3 -9 -5 -35 -5 -58 2 -40 2 -39 9 13 7 59 6 71 -4 45z"/>
<path d="M232 2370 c0 -14 2 -19 5 -12 2 6 2 18 0 25 -3 6 -5 1 -5 -13z"/>
<path d="M2687 2376 c-8 -22 -1 -36 19 -36 8 0 14 -5 14 -12 0 -6 3 -8 7 -5 3
4 -1 15 -9 24 -9 10 -17 25 -20 32 -3 12 -6 11 -11 -3z"/>
<path d="M3100 2364 c0 -8 5 -12 10 -9 6 3 10 10 10 16 0 5 -4 9 -10 9 -5 0
-10 -7 -10 -16z"/>
<path d="M66 2343 c10 -40 14 -41 14 -5 0 18 -5 32 -10 32 -6 0 -8 -11 -4 -27z"/>
<path d="M31 2344 c0 -11 3 -14 6 -6 3 7 2 16 -1 19 -3 4 -6 -2 -5 -13z"/>
<path d="M171 2334 c0 -11 3 -14 6 -6 3 7 2 16 -1 19 -3 4 -6 -2 -5 -13z"/>
<path d="M1210 2343 c0 -6 6 -23 14 -37 12 -23 15 -24 20 -10 4 11 -1 25 -14
38 -11 11 -20 15 -20 9z"/>
<path d="M2263 2333 c-7 -3 -13 -12 -13 -21 0 -15 2 -15 17 1 18 18 16 27 -4
20z"/>
<path d="M2677 2332 c-10 -17 -38 -125 -33 -129 9 -10 26 8 26 28 0 11 6 22
14 25 8 3 12 13 9 25 -3 10 0 25 6 33 9 10 8 15 -3 19 -9 4 -17 3 -19 -1z"/>
<path d="M23 2255 c0 -38 2 -53 4 -32 2 20 2 52 0 70 -2 17 -4 1 -4 -38z"/>
<path d="M162 2290 c0 -14 2 -19 5 -12 2 6 2 18 0 25 -3 6 -5 1 -5 -13z"/>
<path d="M2330 2295 c-7 -8 -18 -15 -24 -15 -8 0 -11 -11 -8 -30 6 -39 22 -39
22 0 0 17 7 33 17 39 10 5 15 12 12 15 -3 4 -12 0 -19 -9z"/>
<path d="M2940 2220 c-7 -30 -18 -61 -24 -69 -9 -11 -8 -13 4 -9 14 4 43 102
36 123 -1 6 -9 -15 -16 -45z"/>
<path d="M2339 2225 c-9 -8 2 -55 12 -55 10 0 11 17 0 43 -3 10 -9 15 -12 12z"/>
<path d="M2455 2210 c-3 -5 1 -10 9 -10 9 0 16 5 16 10 0 6 -4 10 -9 10 -6 0
-13 -4 -16 -10z"/>
<path d="M2991 2194 c0 -11 3 -14 6 -6 3 7 2 16 -1 19 -3 4 -6 -2 -5 -13z"/>
<path d="M3020 2196 c0 -8 5 -18 10 -21 6 -3 10 1 10 9 0 8 -4 18 -10 21 -5 3
-10 -1 -10 -9z"/>
<path d="M6 2089 c-4 -44 -5 -83 -3 -85 3 -3 8 31 12 76 4 45 5 83 2 86 -2 3
-8 -32 -11 -77z"/>
<path d="M2500 2153 c8 -3 21 -12 28 -21 7 -10 12 -11 12 -4 0 7 0 15 0 19 0
4 -12 8 -27 10 -16 1 -21 0 -13 -4z"/>
<path d="M3102 2130 c-7 -11 -8 -20 -3 -20 9 0 24 30 18 36 -1 2 -8 -6 -15
-16z"/>
<path d="M2212 2098 c-9 -35 3 -68 25 -68 16 0 17 56 2 65 -6 4 -8 13 -5 21 3
8 1 14 -4 14 -5 0 -13 -15 -18 -32z"/>
<path d="M2515 2040 c-3 -5 -1 -10 4 -10 6 0 11 5 11 10 0 6 -2 10 -4 10 -3 0
-8 -4 -11 -10z"/>
<path d="M3075 2030 c3 -5 10 -10 16 -10 5 0 9 5 9 10 0 6 -7 10 -16 10 -8 0
-12 -4 -9 -10z"/>
<path d="M91 1974 c0 -11 3 -14 6 -6 3 7 2 16 -1 19 -3 4 -6 -2 -5 -13z"/>
<path d="M12 1940 c0 -14 2 -19 5 -12 2 6 2 18 0 25 -3 6 -5 1 -5 -13z"/>
<path d="M2 1870 c0 -19 2 -27 5 -17 2 9 2 25 0 35 -3 9 -5 1 -5 -18z"/>
<path d="M71 1874 c0 -11 3 -14 6 -6 3 7 2 16 -1 19 -3 4 -6 -2 -5 -13z"/>
<path d="M2920 1859 c0 -5 5 -7 10 -4 6 3 10 8 10 11 0 2 -4 4 -10 4 -5 0 -10
-5 -10 -11z"/>
<path d="M3140 1855 c-8 -10 -17 -12 -28 -6 -12 7 -21 3 -34 -11 -10 -12 -24
-18 -33 -14 -23 8 -29 -19 -11 -46 9 -12 16 -17 16 -10 0 7 5 10 10 7 6 -3 10
1 10 9 0 9 5 16 10 16 6 0 10 -8 10 -17 0 -13 4 -11 13 7 9 17 10 27 3 33 -6
5 -2 6 9 3 23 -6 39 2 48 27 8 21 -6 22 -23 2z"/>
<path d="M2410 1841 c0 -5 7 -11 15 -15 9 -3 15 0 15 9 0 8 -7 15 -15 15 -8 0
-15 -4 -15 -9z"/>
<path d="M2640 1829 c0 -5 5 -7 10 -4 6 3 10 8 10 11 0 2 -4 4 -10 4 -5 0 -10
-5 -10 -11z"/>
<path d="M61 1814 c0 -11 3 -14 6 -6 3 7 2 16 -1 19 -3 4 -6 -2 -5 -13z"/>
<path d="M2390 1799 c-13 -9 -12 -10 3 -5 13 4 17 0 17 -23 0 -24 6 -31 43
-45 23 -9 57 -16 75 -16 18 0 32 -5 32 -10 0 -5 3 -9 8 -8 4 1 18 -4 31 -11
28 -16 100 -9 116 11 5 8 19 12 30 10 15 -3 17 -1 9 8 -6 6 -27 13 -45 15 -87
10 -119 18 -119 31 0 8 -9 14 -20 14 -11 0 -23 7 -26 15 -4 9 -19 15 -36 15
-16 0 -27 -4 -24 -9 3 -5 -4 -11 -15 -14 -16 -4 -19 -2 -15 10 4 11 2 13 -9 9
-8 -3 -15 -1 -15 4 0 13 -21 12 -40 -1z"/>
<path d="M2815 1795 c-3 -8 -8 -23 -12 -32 -17 -45 -12 -61 19 -67 39 -8 50 0
35 26 -9 16 -9 22 1 25 21 8 13 23 -14 23 -21 0 -24 4 -19 20 3 11 4 20 0 20
-3 0 -8 -7 -10 -15z"/>
<path d="M2890 1803 c8 -3 21 -12 27 -21 7 -9 16 -13 19 -9 11 11 -17 37 -40
36 -14 0 -16 -2 -6 -6z"/>
<path d="M51 1774 c0 -11 3 -14 6 -6 3 7 2 16 -1 19 -3 4 -6 -2 -5 -13z"/>
<path d="M3200 1775 c-8 -54 -4 -80 15 -84 11 -2 23 -8 28 -15 5 -8 10 -7 17
4 7 11 3 20 -15 36 -14 11 -29 32 -34 45 -5 13 -10 20 -11 14z"/>
<path d="M3310 1755 c0 -9 9 -15 23 -15 20 0 22 -4 19 -45 -2 -25 1 -52 7 -59
8 -10 7 -21 -4 -42 -17 -34 -19 -54 -5 -54 6 0 8 -15 5 -37 -4 -31 0 -44 20
-68 l25 -30 0 142 c0 78 -3 143 -7 145 -5 2 -15 16 -23 32 -17 33 -60 55 -60
31z"/>
<path d="M45 1695 c4 -40 3 -45 -5 -25 -9 22 -9 22 -5 -8 3 -18 -4 -96 -15
-173 -18 -122 -26 -243 -15 -214 3 6 16 100 29 210 18 142 23 209 16 230 -8
25 -9 22 -5 -20z"/>
<path d="M61 1724 c0 -11 3 -14 6 -6 3 7 2 16 -1 19 -3 4 -6 -2 -5 -13z"/>
<path d="M2313 1693 c-13 -2 -23 -9 -23 -14 0 -13 13 -11 46 6 28 15 22 17
-23 8z"/>
<path d="M3288 1693 c7 -3 16 -2 19 1 4 3 -2 6 -13 5 -11 0 -14 -3 -6 -6z"/>
<path d="M2860 1670 c1 -21 25 -51 35 -42 5 4 6 0 2 -9 -4 -13 -1 -16 14 -12
14 4 17 9 9 18 -6 7 -9 19 -8 26 2 8 -5 14 -17 14 -11 0 -23 5 -27 10 -5 6 -8
4 -8 -5z"/>
<path d="M3270 1670 c0 -5 5 -10 10 -10 6 0 10 5 10 10 0 6 -4 10 -10 10 -5 0
-10 -4 -10 -10z"/>
<path d="M22 1620 c0 -14 2 -19 5 -12 2 6 2 18 0 25 -3 6 -5 1 -5 -13z"/>
<path d="M3120 1631 c0 -5 7 -14 15 -21 26 -21 19 -50 -12 -50 -26 -1 -27 -1
-8 -12 11 -6 32 -22 46 -35 16 -15 29 -21 33 -14 7 11 66 -5 66 -19 0 -12 -28
-20 -45 -14 -8 4 -15 1 -15 -5 0 -6 7 -11 15 -11 8 0 15 -3 15 -6 0 -3 -7 -12
-15 -20 -19 -19 -19 -31 -1 -31 8 0 12 6 9 14 -3 7 -2 13 1 13 4 0 11 -10 16
-22 l9 -23 0 22 c1 12 6 25 12 28 6 4 8 13 5 20 -7 19 18 37 40 28 17 -6 17
-5 5 11 -8 9 -20 15 -28 12 -7 -3 -13 1 -13 10 0 9 -5 12 -11 8 -16 -10 -29
17 -22 45 6 23 4 23 -32 17 -32 -6 -37 -5 -32 8 4 10 1 16 -8 16 -8 0 -15 6
-15 14 0 8 -7 16 -15 20 -8 3 -15 2 -15 -3z m63 -88 c-7 -2 -19 -2 -25 0 -7 3
-2 5 12 5 14 0 19 -2 13 -5z m14 -19 c-3 -3 -12 -4 -19 -1 -8 3 -5 6 6 6 11 1
17 -2 13 -5z"/>
<path d="M2770 1610 c36 -11 50 -11 50 0 0 6 -17 10 -37 9 -34 -1 -35 -2 -13
-9z"/>
<path d="M2858 1603 c7 -3 16 -2 19 1 4 3 -2 6 -13 5 -11 0 -14 -3 -6 -6z"/>
<path d="M2920 1600 c-12 -8 -11 -10 8 -10 12 0 22 -5 22 -11 0 -6 -9 -8 -22
-4 -21 5 -21 5 2 -9 14 -8 28 -12 32 -10 5 3 9 -2 9 -10 1 -9 2 -22 3 -28 0
-7 9 -14 18 -16 13 -2 16 1 12 12 -3 8 4 24 15 35 21 21 14 35 -14 25 -11 -5
-18 0 -22 15 -6 23 -37 28 -63 11z"/>
<path d="M12 1570 c0 -14 2 -19 5 -12 2 6 2 18 0 25 -3 6 -5 1 -5 -13z"/>
<path d="M3097 1503 c-6 -33 -2 -45 23 -61 17 -10 18 -9 13 6 -3 9 4 5 15 -10
26 -31 28 -40 7 -32 -11 5 -13 2 -9 -10 3 -9 10 -13 15 -10 5 3 9 0 9 -5 0 -6
4 -11 9 -11 10 0 3 47 -11 78 -6 12 -18 22 -25 22 -8 0 -11 5 -8 10 3 6 1 10
-4 10 -6 0 -11 6 -11 14 0 27 -18 26 -23 -1z"/>
<path d="M3031 1496 c-8 -10 -2 -27 26 -70 21 -31 39 -52 41 -46 2 5 8 8 13 4
5 -3 9 4 9 15 0 25 -20 39 -21 14 0 -14 -2 -14 -6 -3 -4 8 -16 22 -27 31 -12
10 -17 21 -13 25 4 5 13 2 18 -6 9 -12 10 -12 5 3 -3 10 -6 22 -6 27 0 15 -28
19 -39 6z"/>
<path d="M100 1470 c0 -5 7 -10 16 -10 8 0 12 5 9 10 -3 6 -10 10 -16 10 -5 0
-9 -4 -9 -10z"/>
<path d="M61 1424 c0 -11 3 -14 6 -6 3 7 2 16 -1 19 -3 4 -6 -2 -5 -13z"/>
<path d="M3280 1408 c-3 -93 -3 -95 -29 -90 -20 4 -23 2 -18 -12 4 -10 7 -19
7 -21 0 -2 9 -1 19 2 15 4 22 -3 32 -30 7 -19 18 -33 24 -31 7 3 11 -4 10 -18
-1 -13 2 -28 7 -35 5 -7 7 -17 3 -23 -3 -5 1 -13 9 -16 9 -3 16 -17 16 -30 0
-13 5 -24 10 -24 6 0 10 -7 10 -15 0 -8 5 -15 10 -15 15 0 13 323 -2 338 -18
18 -28 15 -28 -9 0 -11 -4 -17 -10 -14 -5 3 -10 17 -10 31 0 13 -4 24 -10 24
-5 0 -8 -13 -7 -30 1 -16 6 -30 10 -30 5 0 5 -4 2 -10 -6 -9 -33 8 -33 20 2
36 -4 70 -12 70 -5 0 -10 -15 -10 -32z m95 -68 c3 -5 -1 -10 -9 -10 -9 0 -16
5 -16 10 0 6 4 10 9 10 6 0 13 -4 16 -10z m-55 -29 c0 -5 -7 -12 -16 -15 -14
-5 -15 -4 -4 9 14 17 20 19 20 6z m4 -29 c3 -5 -1 -9 -9 -9 -8 0 -12 4 -9 9 3
4 7 8 9 8 2 0 6 -4 9 -8z"/>
<path d="M170 1420 c-23 -7 -23 -8 13 -15 25 -5 42 -4 50 4 8 8 8 11 0 11 -6
0 -17 2 -25 4 -7 2 -24 1 -38 -4z"/>
<path d="M413 1403 c9 -2 25 -2 35 0 9 3 1 5 -18 5 -19 0 -27 -2 -17 -5z"/>
<path d="M3124 1340 c3 -17 15 -53 27 -80 19 -45 23 -48 34 -33 9 12 10 20 3
24 -7 4 -9 22 -5 43 6 40 1 45 -19 19 -12 -17 -13 -16 -14 4 0 12 -5 25 -10
28 -6 4 -8 11 -5 16 4 5 1 9 -6 9 -7 0 -9 -10 -5 -30z"/>
<path d="M3225 1340 c-3 -5 -1 -10 4 -10 6 0 11 5 11 10 0 6 -2 10 -4 10 -3 0
-8 -4 -11 -10z"/>
<path d="M101 1331 c-8 -5 -11 -16 -7 -29 4 -11 2 -23 -4 -27 -5 -3 -10 -2
-10 3 0 5 -11 10 -24 10 -32 0 -43 -44 -14 -59 16 -9 24 -5 43 17 13 15 25 42
27 60 2 19 4 34 3 34 0 0 -6 -4 -14 -9z"/>
<path d="M2929 1331 c11 -7 11 -9 0 -13 -8 -3 1 -7 19 -10 17 -2 32 -1 32 4 0
4 -7 8 -15 8 -8 0 -15 5 -15 10 0 6 -8 10 -17 10 -14 0 -15 -2 -4 -9z"/>
<path d="M533 1316 c-18 -8 -23 -20 -25 -56 -4 -79 2 -143 18 -200 9 -30 25
-89 36 -130 18 -66 25 -99 53 -225 l6 -30 -16 28 c-9 16 -20 53 -25 84 -5 30
-15 62 -21 70 -7 8 -14 25 -15 39 -2 14 -17 46 -33 71 -30 44 -42 91 -21 78
13 -8 13 -4 -1 51 -6 24 -15 44 -19 44 -9 0 -27 -169 -22 -207 3 -27 -13 -31
-22 -7 -4 9 -9 14 -12 11 -11 -11 19 -82 62 -149 24 -38 41 -68 37 -68 -4 0
-2 -5 5 -12 7 -7 12 -16 12 -20 0 -13 -20 -9 -37 8 -12 12 -18 13 -24 3 -5 -8
-10 2 -14 27 -18 112 -49 111 -46 -2 2 -70 0 -80 -18 -91 -19 -12 -23 -9 -41
27 -24 48 -35 51 -35 10 0 -16 2 -29 5 -28 3 2 20 -11 38 -27 21 -19 72 -43
140 -67 105 -36 106 -36 56 -35 -29 1 -50 5 -48 9 3 4 -12 10 -33 14 -21 4
-50 13 -65 20 -35 18 -37 18 -31 -4 2 -10 -5 -26 -16 -36 -27 -24 -26 -32 2
-41 12 -3 17 -9 10 -11 -6 -3 -24 3 -39 12 -25 17 -27 17 -40 -1 -8 -10 -14
-27 -14 -38 0 -32 34 -151 47 -165 7 -7 13 -22 13 -32 0 -29 11 -50 26 -50 8
0 14 -7 14 -16 0 -8 5 -12 10 -9 6 3 10 3 10 -2 0 -12 91 -106 132 -136 34
-25 43 -27 142 -27 103 0 106 1 106 23 0 12 5 29 10 37 6 10 8 3 3 -22 -5 -36
-4 -38 21 -38 14 0 26 2 26 3 0 2 -9 30 -20 62 -23 68 -26 97 -7 89 11 -4 13
8 12 50 -1 31 -7 62 -13 69 -6 7 -14 33 -17 57 -4 34 -3 39 4 20 5 -14 18 -45
30 -70 l21 -45 -3 51 c-2 31 -11 61 -24 80 -11 16 -21 33 -21 37 -1 21 -12 18
-12 -3 0 -47 -8 -13 -19 79 -12 100 -21 125 -76 211 -19 30 -34 63 -35 73 0 9
-4 17 -8 17 -13 0 -41 168 -52 317 -9 106 -33 238 -43 232 -1 -1 -12 -6 -24
-13z m-18 -386 c3 -5 1 -10 -4 -10 -6 0 -11 5 -11 10 0 6 2 10 4 10 3 0 8 -4
11 -10z m9 -56 c8 -21 8 -79 0 -71 -10 10 -22 87 -14 87 4 0 11 -7 14 -16z
m131 -254 c3 -5 1 -10 -4 -10 -6 0 -11 5 -11 10 0 6 2 10 4 10 3 0 8 -4 11
-10z m-105 -21 c12 -7 11 -8 -5 -8 -11 0 -29 7 -40 15 -19 16 -19 16 5 9 14
-4 32 -11 40 -16z m-110 -89 c0 -5 -5 -10 -11 -10 -5 0 -7 5 -4 10 3 6 8 10
11 10 2 0 4 -4 4 -10z m43 -10 c3 -11 3 -20 1 -20 -2 0 -8 9 -14 20 -6 11 -7
20 -2 20 6 0 12 -9 15 -20z m162 10 c3 -6 -1 -7 -9 -4 -18 7 -21 14 -7 14 6 0
13 -4 16 -10z"/>
<path d="M2920 1282 c0 -14 5 -20 14 -16 17 6 27 -18 15 -37 -8 -12 -10 -12
-19 1 -7 12 -12 12 -22 2 -15 -15 0 -32 30 -35 11 0 18 -5 16 -9 -3 -4 -16 -5
-29 -2 -12 3 -25 1 -28 -4 -8 -11 18 -49 41 -61 15 -8 18 -5 20 15 1 20 -2 24
-17 19 -10 -3 -23 1 -30 9 -11 13 -8 14 21 10 26 -4 36 -1 45 15 7 11 9 22 3
26 -5 3 -6 21 -3 40 5 30 3 34 -11 29 -9 -3 -23 -1 -31 6 -12 10 -15 9 -15 -8z"/>
<path d="M2488 1283 c7 -3 16 -2 19 1 4 3 -2 6 -13 5 -11 0 -14 -3 -6 -6z"/>
<path d="M2430 1255 c0 -20 5 -25 25 -25 27 0 33 18 13 38 -20 20 -38 14 -38
-13z"/>
<path d="M3258 1233 c7 -3 16 -2 19 1 4 3 -2 6 -13 5 -11 0 -14 -3 -6 -6z"/>
<path d="M3210 1210 c-6 -11 -17 -20 -25 -20 -8 0 -15 -5 -15 -11 0 -7 8 -9
23 -4 12 4 30 7 40 8 21 2 23 33 2 41 -9 3 -19 -3 -25 -14z"/>
<path d="M88 1213 c7 -3 16 -2 19 1 4 3 -2 6 -13 5 -11 0 -14 -3 -6 -6z"/>
<path d="M124 1206 c-13 -14 -14 -46 -2 -46 15 0 8 -19 -9 -23 -13 -3 -12 -5
5 -6 13 0 30 6 38 14 14 13 14 15 -1 15 -20 0 -32 30 -15 40 6 4 8 10 4 13 -5
3 -14 0 -20 -7z"/>
<path d="M2307 1198 c-16 -9 15 -21 44 -16 36 5 35 28 -1 25 -18 -1 -37 -5
-43 -9z"/>
<path d="M2721 1189 c8 -16 14 -18 22 -10 9 9 8 14 -3 21 -24 16 -31 11 -19
-11z"/>
<path d="M3269 1197 c-8 -23 -6 -46 3 -44 6 1 12 -9 13 -23 1 -14 2 -40 3 -58
1 -21 6 -31 13 -27 5 4 19 -1 30 -11 26 -23 24 -14 -11 50 -16 31 -25 58 -21
61 13 7 2 43 -15 49 -8 3 -14 4 -15 3z"/>
<path d="M915 1150 c-3 -5 -1 -10 4 -10 6 0 11 5 11 10 0 6 -2 10 -4 10 -3 0
-8 -4 -11 -10z"/>
<path d="M3208 1153 c-19 -5 -22 -12 -12 -37 9 -24 24 -19 24 7 0 17 2 19 9 7
6 -8 7 -18 4 -23 -9 -14 19 -57 36 -57 14 1 14 2 -1 14 -10 7 -15 16 -12 19 6
5 -23 79 -29 76 -1 -1 -10 -3 -19 -6z"/>
<path d="M2722 1119 c1 -13 8 -23 13 -21 15 3 12 35 -3 40 -9 3 -13 -3 -10
-19z"/>
<path d="M35 1110 c-4 -6 -13 -9 -21 -6 -16 6 -19 -10 -4 -19 11 -7 46 23 37
31 -3 3 -8 0 -12 -6z"/>
<path d="M2887 1101 c-3 -12 1 -22 10 -25 26 -10 38 -6 21 8 -10 7 -15 15 -12
18 3 4 1 9 -4 12 -5 3 -12 -3 -15 -13z"/>
<path d="M2937 1095 c13 -9 20 -22 17 -30 -4 -8 -1 -15 5 -15 6 0 11 6 11 13
0 15 -31 47 -46 47 -4 0 1 -7 13 -15z"/>
<path d="M48 1069 c17 -18 15 -32 -3 -25 -16 6 -19 -3 -9 -29 5 -13 9 -11 20
11 18 34 18 40 -3 49 -15 5 -16 4 -5 -6z"/>
<path d="M2850 1074 c0 -6 16 -18 35 -27 44 -21 51 -21 31 -2 -8 8 -21 15 -28
15 -8 0 -19 5 -26 12 -7 7 -12 8 -12 2z"/>
<path d="M200 1061 c0 -5 7 -11 15 -15 9 -3 15 0 15 9 0 8 -7 15 -15 15 -8 0
-15 -4 -15 -9z"/>
<path d="M967 1063 c-14 -13 -7 -23 16 -23 13 0 28 -5 34 -11 8 -8 19 -6 39 5
l29 16 -36 -6 c-25 -4 -39 -1 -48 10 -15 17 -24 20 -34 9z"/>
<path d="M880 1045 c0 -9 6 -12 15 -9 8 4 15 10 15 15 0 5 -7 9 -15 9 -8 0
-15 -7 -15 -15z"/>
<path d="M76 1028 c-10 -41 -8 -52 9 -38 8 7 13 16 10 20 -3 5 0 10 7 12 6 2
8 10 4 16 -11 18 -23 14 -30 -10z"/>
<path d="M2954 1032 c-6 -4 -13 -15 -17 -24 -7 -19 -42 -25 -52 -9 -3 5 3 12
12 14 17 4 17 5 0 6 -22 1 -34 -28 -16 -40 21 -13 33 -11 57 11 19 18 22 19
22 4 0 -23 6 -15 14 19 6 27 0 33 -20 19z"/>
<path d="M3228 1033 c7 -3 16 -2 19 1 4 3 -2 6 -13 5 -11 0 -14 -3 -6 -6z"/>
<path d="M3270 1026 c0 -9 5 -16 10 -16 6 0 10 4 10 9 0 6 -4 13 -10 16 -5 3
-10 -1 -10 -9z"/>
<path d="M271 1009 c-27 -29 -19 -37 9 -9 12 12 19 24 17 26 -3 3 -14 -5 -26
-17z"/>
<path d="M2450 1020 c0 -5 7 -10 15 -10 8 0 15 5 15 10 0 6 -7 10 -15 10 -8 0
-15 -4 -15 -10z"/>
<path d="M3360 1020 c0 -5 5 -10 10 -10 6 0 10 5 10 10 0 6 -4 10 -10 10 -5 0
-10 -4 -10 -10z"/>
<path d="M140 1015 c0 -9 21 -27 48 -43 18 -10 22 -10 22 1 0 12 -12 20 -62
45 -5 2 -8 1 -8 -3z"/>
<path d="M3345 978 c-14 -44 -14 -68 1 -68 17 0 17 -10 0 -32 -15 -20 -37 -23
-53 -7 -16 16 -22 0 -25 -62 -2 -42 0 -54 12 -54 20 0 25 34 6 41 -12 5 -13
10 -4 30 19 40 51 28 63 -23 4 -22 3 -33 -5 -33 -6 0 -9 -4 -6 -9 3 -5 -1 -12
-10 -15 -8 -3 -14 -11 -12 -18 1 -7 -4 -28 -11 -46 -11 -27 -12 -41 -2 -74 12
-39 13 -40 27 -19 10 13 26 21 45 21 20 0 29 4 26 13 -2 6 -15 12 -28 12 -13
-1 -28 6 -33 14 -7 11 -11 9 -22 -10 l-13 -24 -1 28 c0 23 5 29 31 34 22 4 34
14 41 34 5 16 14 29 19 29 5 0 9 10 8 23 0 12 -3 16 -6 10 -2 -7 -11 -13 -19
-13 -9 0 -13 4 -10 8 3 5 6 26 7 48 1 21 8 49 16 61 12 20 11 24 -8 33 -15 9
-18 15 -10 24 8 10 7 21 -3 40 l-13 27 -8 -23z"/>
<path d="M3265 979 c-10 -15 3 -25 16 -12 7 7 7 13 1 17 -6 3 -14 1 -17 -5z"/>
<path d="M663 963 c-1 -30 17 -93 27 -93 6 0 10 -17 11 -37 1 -38 1 -38 12
-10 6 15 14 27 19 27 4 0 8 6 8 14 0 8 6 17 13 20 6 4 -4 4 -23 1 -25 -4 -31
-2 -20 5 12 8 12 12 2 18 -7 5 -12 15 -10 22 2 8 -4 14 -12 15 -9 0 -14 8 -12
18 2 9 -1 17 -6 17 -5 0 -9 -8 -9 -17z"/>
<path d="M1015 970 c-3 -5 1 -10 9 -10 9 0 16 5 16 10 0 6 -4 10 -9 10 -6 0
-13 -4 -16 -10z"/>
<path d="M2293 965 c-13 -5 -23 -15 -23 -22 0 -7 10 -13 23 -14 l22 0 -23 -10
c-17 -6 -22 -14 -18 -27 5 -13 -1 -22 -19 -30 -20 -9 -25 -19 -25 -47 0 -24
-5 -35 -15 -35 -8 0 -15 -4 -15 -10 0 -5 7 -10 15 -10 8 0 15 -7 15 -14 0 -8
15 -29 33 -46 30 -30 31 -31 7 -25 -14 4 -26 11 -28 16 -2 5 -12 19 -22 31
l-19 23 -1 -22 c0 -22 6 -30 45 -58 20 -14 19 -14 -5 -15 -23 -1 -23 -2 -5
-10 16 -7 17 -9 3 -9 -9 -1 -25 10 -35 22 -34 43 -77 21 -51 -26 7 -12 11 -26
9 -32 -1 -5 7 -1 18 9 13 12 21 15 21 7 0 -9 16 -12 54 -9 41 2 52 0 44 -9
-13 -16 -6 -55 10 -61 9 -3 13 4 12 19 -5 58 -4 59 63 59 35 0 68 5 74 11 13
13 5 42 -9 33 -6 -4 -5 -10 3 -15 10 -6 4 -9 -18 -9 -25 0 -33 5 -34 18 0 14
-2 14 -7 2 -9 -19 -39 -22 -46 -4 -3 8 13 23 40 39 24 14 42 30 39 36 -10 15
-23 11 -29 -9 -3 -10 -19 -23 -36 -29 -16 -6 -30 -18 -30 -27 0 -9 -4 -16 -8
-16 -4 0 -8 9 -8 21 0 14 13 27 38 40 24 12 38 26 38 39 0 13 5 18 15 14 20
-8 19 13 -1 24 -12 6 -15 18 -12 36 6 30 -21 56 -57 56 -18 0 -20 5 -17 39 6
58 1 68 -25 56z m57 -113 c0 -5 -13 -7 -30 -4 -16 2 -30 6 -30 8 0 2 14 4 30
4 17 0 30 -4 30 -8z m-86 -18 c-7 -3 -9 -23 -6 -51 3 -32 1 -44 -7 -39 -6 4
-11 27 -11 52 0 36 3 44 18 43 9 0 12 -3 6 -5z m111 -34 c-2 -31 -15 -37 -15
-7 0 15 4 27 8 27 5 0 8 -9 7 -20z m-5 -54 c0 -2 -7 -9 -15 -16 -13 -11 -14
-10 -9 4 5 14 24 23 24 12z m-80 -100 c0 -3 -4 -8 -10 -11 -5 -3 -10 -1 -10 4
0 6 5 11 10 11 6 0 10 -2 10 -4z"/>
<path d="M2828 942 c6 -35 27 -59 57 -64 16 -4 22 -1 18 9 -3 7 -9 13 -14 13
-4 0 -16 13 -25 30 -24 40 -42 46 -36 12z"/>
<path d="M2930 966 c0 -2 7 -7 16 -10 8 -3 12 -2 9 4 -6 10 -25 14 -25 6z"/>
<path d="M2936 937 c3 -10 9 -15 12 -12 3 3 0 11 -7 18 -10 9 -11 8 -5 -6z"/>
<path d="M770 920 c-12 -8 -11 -10 8 -10 12 0 22 5 22 10 0 13 -11 13 -30 0z"/>
<path d="M2888 923 c7 -3 16 -2 19 1 4 3 -2 6 -13 5 -11 0 -14 -3 -6 -6z"/>
<path d="M258 884 c-8 -7 2 -44 12 -44 4 0 7 11 6 25 -1 24 -7 31 -18 19z"/>
<path d="M2181 864 c0 -11 3 -14 6 -6 3 7 2 16 -1 19 -3 4 -6 -2 -5 -13z"/>
<path d="M644 845 c2 -16 13 -48 22 -70 10 -22 17 -43 16 -47 -1 -3 5 -8 12
-11 10 -4 7 12 -10 59 -12 35 -28 72 -34 81 -9 15 -11 13 -6 -12z"/>
<path d="M50 849 c0 -5 9 -9 20 -9 11 0 23 0 27 -1 4 0 9 4 11 9 1 5 -11 9
-28 10 -16 0 -30 -4 -30 -9z"/>
<path d="M100 820 c-24 -8 -18 -12 15 -12 28 0 35 2 35 12 0 11 -14 11 -50 0z"/>
<path d="M2120 786 c0 -8 5 -18 10 -21 6 -3 10 3 10 14 0 12 -4 21 -10 21 -5
0 -10 -6 -10 -14z"/>
<path d="M2480 759 c0 -14 41 -51 48 -44 7 6 -27 55 -38 55 -6 0 -10 -5 -10
-11z"/>
<path d="M217 735 c-10 -14 -24 -25 -31 -25 -8 0 -19 -7 -26 -15 -20 -24 -49
-18 -56 10 -6 26 -28 33 -40 14 -3 -6 -19 -9 -35 -7 -25 4 -29 1 -29 -19 0
-14 4 -21 10 -18 5 3 10 1 10 -4 0 -6 -4 -11 -8 -11 -12 0 -8 -63 4 -67 6 -2
15 6 20 19 6 17 9 2 11 -52 2 -41 9 -80 15 -88 7 -7 11 -42 11 -77 0 -35 2
-63 6 -62 12 3 51 -38 51 -54 0 -11 8 -16 25 -16 28 0 31 7 13 25 -9 9 -9 12
0 12 7 0 17 -11 22 -25 14 -38 22 -30 19 20 -2 24 0 47 3 50 3 3 2 23 -3 43
-11 49 -11 54 2 46 8 -4 9 0 4 15 -4 12 -2 21 4 21 6 0 11 -12 11 -27 0 -16 5
-35 11 -43 8 -11 9 -2 5 34 -3 28 -12 53 -19 58 -8 5 -8 8 -1 8 6 0 14 19 17
43 3 23 9 62 13 86 5 32 4 42 -4 37 -12 -7 -16 13 -12 67 2 33 0 33 -23 2z
m-62 -135 c3 -5 1 -10 -4 -10 -6 0 -11 5 -11 10 0 6 2 10 4 10 3 0 8 -4 11
-10z m12 -52 c-3 -8 -6 -5 -6 6 -1 11 2 17 5 13 3 -3 4 -12 1 -19z m20 -30
c-3 -8 -6 -5 -6 6 -1 11 2 17 5 13 3 -3 4 -12 1 -19z"/>
<path d="M1895 680 c-3 -5 1 -10 9 -10 9 0 16 5 16 10 0 6 -4 10 -9 10 -6 0
-13 -4 -16 -10z"/>
<path d="M1962 660 c0 -14 2 -19 5 -12 2 6 2 18 0 25 -3 6 -5 1 -5 -13z"/>
<path d="M1920 641 c0 -12 5 -21 10 -21 6 0 10 6 10 14 0 8 -4 18 -10 21 -5 3
-10 -3 -10 -14z"/>
<path d="M3378 653 c7 -3 16 -2 19 1 4 3 -2 6 -13 5 -11 0 -14 -3 -6 -6z"/>
<path d="M2180 569 c0 -5 5 -7 10 -4 6 3 10 8 10 11 0 2 -4 4 -10 4 -5 0 -10
-5 -10 -11z"/>
<path d="M3380 573 c-14 -6 -30 -22 -30 -33 0 -3 11 -10 25 -17 24 -11 25 -10
25 23 0 19 -1 34 -2 33 -2 0 -10 -3 -18 -6z"/>
<path d="M3330 508 c0 -18 18 -34 28 -24 3 4 -2 14 -11 23 -16 16 -17 16 -17
1z"/>
<path d="M3386 467 c-5 -15 -6 -31 -2 -34 11 -11 18 5 14 34 l-4 28 -8 -28z"/>
<path d="M3388 397 c-5 -10 -12 -16 -17 -12 -5 3 -12 -16 -16 -42 -3 -27 -14
-78 -25 -114 -24 -80 -24 -82 -1 -74 10 3 30 1 45 -4 26 -10 26 -10 26 34 0
29 -4 45 -12 45 -10 0 -10 2 0 9 9 5 12 31 10 92 -2 49 -6 76 -10 66z"/>
<path d="M850 309 c0 -5 5 -7 10 -4 6 3 10 8 10 11 0 2 -4 4 -10 4 -5 0 -10
-5 -10 -11z"/>
<path d="M220 258 c0 -49 5 -47 14 5 4 23 3 37 -4 37 -5 0 -10 -19 -10 -42z"/>
<path d="M146 237 c3 -10 9 -15 12 -12 3 3 0 11 -7 18 -10 9 -11 8 -5 -6z"/>
<path d="M161 177 c-13 -21 -12 -21 5 -5 10 10 16 20 13 22 -3 3 -11 -5 -18
-17z"/>
<path d="M187 171 c-6 -25 0 -31 35 -31 30 0 37 17 16 38 -18 18 -45 14 -51
-7z m40 -17 c-3 -3 -12 -4 -19 -1 -8 3 -5 6 6 6 11 1 17 -2 13 -5z"/>
<path d="M270 179 c0 -5 5 -7 10 -4 6 3 10 8 10 11 0 2 -4 4 -10 4 -5 0 -10
-5 -10 -11z"/>
<path d="M300 175 c0 -8 -4 -15 -10 -15 -5 0 -10 -4 -10 -10 0 -19 17 -10 28
15 7 15 8 25 2 25 -6 0 -10 -7 -10 -15z"/>
<path d="M1588 166 c-19 -14 -24 -52 -10 -73 10 -15 52 -13 52 3 0 7 11 11 26
9 23 -2 25 1 22 29 -4 44 -53 61 -90 32z m49 -28 c-3 -8 -6 -5 -6 6 -1 11 2
17 5 13 3 -3 4 -12 1 -19z m20 0 c-3 -8 -6 -5 -6 6 -1 11 2 17 5 13 3 -3 4
-12 1 -19z"/>
<path d="M166 115 c4 -8 8 -15 10 -15 2 0 4 7 4 15 0 8 -4 15 -10 15 -5 0 -7
-7 -4 -15z"/>
<path d="M208 123 c6 -2 18 -2 25 0 6 3 1 5 -13 5 -14 0 -19 -2 -12 -5z"/>
<path d="M3297 99 c-3 -19 -9 -48 -12 -65 l-7 -31 50 -2 c32 -1 53 4 61 13 30
36 -13 121 -50 98 -14 -9 -20 -8 -27 4 -7 13 -10 9 -15 -17z"/>
<path d="M256 111 c-8 -12 3 -41 15 -41 5 0 9 -7 9 -15 0 -8 4 -15 10 -15 5 0
7 6 4 14 -3 8 -1 17 5 21 13 8 15 45 2 45 -5 0 -12 -8 -14 -17 -4 -17 -5 -17
-6 0 -1 18 -16 23 -25 8z"/>
<path d="M1540 108 c0 -10 5 -18 10 -18 6 0 10 -7 10 -15 0 -8 5 -15 10 -15
15 0 12 12 -10 40 -16 20 -20 22 -20 8z"/>
<path d="M3241 94 c0 -11 3 -14 6 -6 3 7 2 16 -1 19 -3 4 -6 -2 -5 -13z"/>
<path d="M130 49 c0 -5 5 -7 10 -4 6 3 10 8 10 11 0 2 -4 4 -10 4 -5 0 -10 -5
-10 -11z"/>
<path d="M3251 44 c0 -11 3 -14 6 -6 3 7 2 16 -1 19 -3 4 -6 -2 -5 -13z"/>
<path d="M347 33 c4 -10 11 -21 17 -25 17 -12 56 -9 56 3 0 8 4 8 14 0 8 -7
37 -11 68 -9 52 3 52 3 28 17 -14 8 -49 15 -77 15 -29 0 -53 4 -53 8 0 4 -13
8 -30 8 -24 0 -28 -3 -23 -17z"/>
<path d="M1704 35 c-8 -21 4 -35 32 -35 28 0 31 17 7 36 -23 17 -32 17 -39 -1z"/>
<path d="M98 3 c7 -3 16 -2 19 1 4 3 -2 6 -13 5 -11 0 -14 -3 -6 -6z"/>
</g>
</svg>
